<svg width="27" height="40" viewBox="0 0 27 40" fill="none" xmlns="http://www.w3.org/2000/svg">
<path d="M3.50781 29.2357V10.5943L13.2692 4.90894L23.0307 10.5943V29.2357L13.2692 34.9211L3.50781 29.2357Z" fill="#62B400"/>
<path d="M13.2686 4.90894L23.03 10.5943V29.2357L13.2686 34.9211V4.90894Z" fill="#4C8C00"/>
<path d="M13.2692 16.207L3.50781 10.5943L13.2692 4.90894V16.207Z" fill="#92E200"/>
<path d="M13.2692 23.6228L3.50781 29.2354L13.2692 34.9127V23.6228Z" fill="#92E200"/>
<path d="M13.2686 16.207L23.03 10.5943L13.2686 4.90894V16.207Z" fill="#62B400"/>
<path d="M13.2686 23.6228L23.03 29.2354L13.2686 34.9127V23.6228Z" fill="#62B400"/>
<path d="M13.2703 29.4461L18.3088 26.5185V13.3119L13.2703 10.3843L8.23193 13.3119V26.5185L13.2703 29.4461Z" fill="#C6EA4B"/>
<path d="M13.271 10.3762V29.4462L18.3094 26.5186V13.3119L13.271 10.3762Z" fill="#92E200"/>
<path d="M13.3037 0L0 7.73959V32.2523L13.3037 40L26.6074 32.2604V7.73959L13.3037 0ZM19.5633 10.4408L14.4763 7.48079V3.39668L23.0975 8.41084L19.5633 10.4408ZM13.3037 30.4893L8.21674 27.5293V12.4707L13.3037 9.51072L18.3906 12.4707V27.5374L13.3037 30.4893ZM12.131 7.48079L7.04408 10.4408L3.51799 8.41084L12.1391 3.39668V7.48079H12.131ZM5.87141 12.4707V27.5293L2.34533 29.5592V10.4408L5.87141 12.4707ZM7.04408 29.5592L12.131 32.5192V36.6033L3.50991 31.5892L7.04408 29.5592ZM14.4763 32.5192L19.5633 29.5592L23.0894 31.5892L14.4683 36.6033V32.5192H14.4763ZM20.7359 27.5293V12.4707L24.262 10.4408V29.5592L20.7359 27.5293Z" fill="#D7FF96"/>
</svg>
